<?xml version="1.0" encoding="iso-8859-1"?>
<!-- Generator: Adobe Illustrator 25.2.0, SVG Export Plug-In . SVG Version: 6.00 Build 0)  -->
<svg version="1.1" id="&#x30EC;&#x30A4;&#x30E4;&#x30FC;_1"
	 xmlns="http://www.w3.org/2000/svg" xmlns:xlink="http://www.w3.org/1999/xlink" x="0px" y="0px" viewBox="0 0 640 330"
	 style="enable-background:new 0 0 640 330;" xml:space="preserve">
<g>
	<polygon style="fill:#005BAB;" points="13.827,17.337 34.79,17.337 122.576,168.392 210.363,17.337 231.317,17.337 
		132.067,188.161 132.067,315.493 113.086,315.493 113.086,188.161 	"/>
	<polygon style="fill:#E50012;" points="315.949,315.493 296.967,315.493 296.967,35.125 219.865,35.125 219.865,17.338 
		393.059,17.338 393.059,35.125 315.949,35.125 	"/>
	<path style="fill:#F7B52C;" d="M624.789,78.236c-22.935-28.074-63.268-47.064-100.046-47.064
		c-74.342,0-135.629,64.065-135.629,137.222c0,34.796,15.028,67.62,39.935,92.129c24.908,23.731,60.5,41.121,95.694,41.121
		c34.398,0,77.898-18.575,100.046-45.472v26.102c-28.083,23.333-62.481,37.176-99.259,37.176
		c-83.037,0-155.398-69.203-155.398-152.638c0-84.629,71.176-153.425,155.796-153.425c35.981,0,72.361,14.24,98.861,38.75V78.236z"
		/>
	<path style="fill:#005BAC;" d="M523.719,255.254c-47.303,0-85.779-38.476-85.779-85.77c0-47.295,38.476-85.779,85.779-85.779
		c47.303,0,85.77,38.484,85.77,85.779C609.488,216.779,571.021,255.254,523.719,255.254 M523.719,101.829
		c-37.308,0-67.664,30.347-67.664,67.656c0,37.308,30.356,67.664,67.664,67.664c37.308,0,67.655-30.356,67.655-67.664
		C591.374,132.176,561.027,101.829,523.719,101.829"/>
</g>
</svg>
